<?xml version="1.0" encoding="UTF-8" standalone="no"?><!DOCTYPE svg PUBLIC "-//W3C//DTD SVG 1.1//EN" "http://www.w3.org/Graphics/SVG/1.1/DTD/svg11.dtd"><svg width="100%" height="100%" viewBox="0 0 417 417" version="1.1" xmlns="http://www.w3.org/2000/svg" xmlns:xlink="http://www.w3.org/1999/xlink" xml:space="preserve" xmlns:serif="http://www.serif.com/" style="fill-rule:evenodd;clip-rule:evenodd;stroke-linejoin:round;stroke-miterlimit:2;"><path d="M416.667,62.5l0,291.667c0,34.495 -28.005,62.5 -62.5,62.5l-291.667,0c-34.495,0 -62.5,-28.005 -62.5,-62.5l0,-291.667c0,-34.495 28.005,-62.5 62.5,-62.5l291.667,0c34.495,0 62.5,28.005 62.5,62.5Z" style="fill:#4caf50;"/><text x="167.781px" y="125px" style="font-family:'Arial-BoldMT', 'Arial', sans-serif;font-weight:700;font-size:145.833px;fill:#fff;">₹</text><path d="M354.167,175c0,4.599 -3.734,8.333 -8.333,8.333l-275,0c-4.599,0 -8.333,-3.734 -8.333,-8.333c0,-4.599 3.734,-8.333 8.333,-8.333l275,0c4.599,0 8.333,3.734 8.333,8.333Z" style="fill:#fff;"/><text x="59.031px" y="250px" style="font-family:'Arial-BoldMT', 'Arial', sans-serif;font-weight:700;font-size:41.667px;fill:#fff;">TDS Deduction</text><text x="63.351px" y="331.504px" style="font-family:'Arial-BoldMT', 'Arial', sans-serif;font-weight:700;font-size:59.451px;fill:#fff;">Calculator</text></svg>